<svg xmlns="http://www.w3.org/2000/svg" xmlns:xlink="http://www.w3.org/1999/xlink" version="1.1" x="0px" y="0px" viewBox="0 0 100 100" enable-background="new 0 0 100 100" xml:space="preserve"><path fill-rule="evenodd" clip-rule="evenodd" d="M98.196,37.25c-1.308,4.971-4.146,8.248-7.239,11.236  c-7.484,7.23-15.138,14.288-22.674,21.465c-1.074,1.022-2.216,1.244-3.602,1.239c-9.414-0.035-18.828-0.068-28.239,0.024  c-1.915,0.019-2.916-0.609-3.798-2.319c-3.697-7.171-7.507-14.288-11.393-21.362c-2.457-4.473-2.15-8.648,0.795-12.729  c2.676-3.71,6.125-6.687,9.317-9.907c0.957-0.966,1.602-0.712,2.465,0.108c4.326,4.102,6.649,8.805,4.678,14.878  c-0.615,1.889-0.999,3.894-1.882,5.65c-1.906,3.786-1.609,7.104,0.567,10.828c3.511,6.013,6.204,7.655,13.2,6.986  c1.813-0.17,2.712-1.421,3.754-2.473c7.044-7.106,14.404-13.75,23.687-17.917C84.217,40.091,90.806,38.11,98.196,37.25z"></path><path fill-rule="evenodd" clip-rule="evenodd" d="M1.645,66.08c0.027-8.803,8.125-15.254,16.747-13.344  c1.468,0.325,2.568,1.004,3.299,2.449c1.994,3.948,4.032,7.883,6.251,11.709c0.894,1.54,0.825,2.854,0.231,4.365  c-2.351,5.988-8.967,9.69-15.302,8.537C6.343,78.606,1.624,72.84,1.645,66.08z M21.038,59.878c-1.326,2.346-2.618,4.633-3.912,6.919  c-0.56,0.99-1.43,1.499-2.488,1.042c-1.299-0.563-1.29-1.737-0.766-2.819c0.814-1.691,1.78-3.31,2.643-4.977  c0.336-0.655,1.169-1.28,0.75-2.046c-0.503-0.917-1.578-0.625-2.422-0.582c-4.128,0.217-7.623,3.569-8.221,7.815  c-0.526,3.745,2.005,7.81,5.71,9.165c3.834,1.404,8.271-0.132,10.455-3.618C25.048,67.168,24.486,63.271,21.038,59.878z"></path><path fill-rule="evenodd" clip-rule="evenodd" d="M98.566,33.856c-10.872,1.174-20.787,4.568-29.826,10.337  c-2.603,1.659-5.049,3.578-7.458,5.51c-1.198,0.96-1.904,1.261-2.676-0.414c-1.104-2.398-2.717-4.557-3.358-7.177  c-1.085-4.403,1.153-7.988,5.602-8.846c1.18-0.227,2.408-0.295,3.618-0.297c10.172-0.019,20.347-0.03,30.519,0.019  C96.102,32.993,97.406,32.468,98.566,33.856z"></path><path fill-rule="evenodd" clip-rule="evenodd" d="M75.896,67.539c2.841,5.985,5.604,7.894,10.429,7.203  c3.545-0.506,6.604-3.45,7.16-6.893c0.753-4.63-1.261-7.863-6.407-10.296c2.674-4.371,4.146-4.565,7.625-1.023  c5.285,5.377,5.342,13.801,0.136,19.167c-5.336,5.493-13.966,5.704-19.41,0.477C71.295,72.204,71.36,71.026,75.896,67.539z"></path><path fill-rule="evenodd" clip-rule="evenodd" d="M43.923,24.098c-1.357,0.411-2.978-0.452-4.71,0.944  c-1.053,0.85-2.387-1.548-3.165-2.687c-0.933-1.367,0.446-2.663,1.28-3.705c0.77-0.96,2.334-1.099,2.912-0.127  c1.413,2.371,3.542,1.681,5.526,1.786c1.517,0.081,3.545-0.211,3.569,1.921c0.023,2.211-2.028,1.811-3.523,1.865  C45.261,24.114,44.708,24.098,43.923,24.098z"></path><path fill-rule="evenodd" clip-rule="evenodd" d="M6.175,52.842c1.33-5.853,5.318-8.094,9.727-9.95  c0.153,0.23,0.234,0.317,0.272,0.417c0.754,2.051,2.472,4.414,1.947,6.062c-0.428,1.345-3.646-0.06-5.644,0.517  C10.435,50.477,8.597,51.386,6.175,52.842z"></path></svg>